<svg xmlns="http://www.w3.org/2000/svg" xml:space="preserve" width="816" height="192" overflow="hidden"><defs><clipPath id="a"><path d="M232 264h816v192H232z"/></clipPath><clipPath id="b"><path d="M232 264h816v192H232z"/></clipPath></defs><g clip-path="url(#a)" transform="translate(-232 -264)"><g clip-path="url(#b)"><path fill="#512A75" d="M955.445 402.406a30.226 30.226 0 0 1-5.232-8.122c-3.075-7.157-6.055-14.356-9.072-21.534-1.165-2.779-2.315-5.559-3.491-8.375a33.175 33.175 0 0 0 6.508-5.074c6.245-6.371 8.296-14.113 7.226-22.789-1.119-9.093-6.329-14.926-14.736-18.106-4.911-1.862-10.053-2.268-15.242-2.273H882.889a1.922 1.922 0 0 0-.085.342v.691c2.521 2.11 3.444 5.005 3.961 8.096.336 2.243.482 4.51.438 6.777v57.045a41.368 41.368 0 0 1-.274 5.992c-.464 3.227-1.055 6.402-3.692 8.797-.048.39-.137.717.058 1.007h24.994v-1.018c-1.677-1.297-2.437-3.164-3.022-5.147a25.165 25.165 0 0 1-.918-6.92c-.063-5.068-.032-10.137-.037-15.211 0-.195 0-.39.042-.606l18.048-5.48c.127.306.243.58.354.855 2.109 5.379 4.277 10.753 6.366 16.154 1.118 2.885 2.505 5.675 3.069 8.755.527 2.843.132 5.443-2.041 7.558a.753.753 0 0 0-.106.185c-.063.299-.032.61.09.891h26.967a1.659 1.659 0 0 0-.058-1.055 6.807 6.807 0 0 1-1.598-1.435Zm-21.587-59.913c-.491 5.321-3.692 8.491-8.207 10.685-5.021 2.426-10.422 3.644-15.754 5.1-1.824.496-3.655.976-5.537 1.477v-27.953c6.487.153 12.884-.206 19.276.206 1.802.113 3.565.575 5.19 1.36 3.798 1.873 5.422 4.911 5.032 9.125ZM538.057 323.822c.786 3.038.854 6.134.854 9.235v56.038a48.488 48.488 0 0 1-.285 6.191c-.422 3.218-1.149 6.303-3.655 8.65a1.72 1.72 0 0 0 0 .949h25.026a2.065 2.065 0 0 0-.074-1.091 7.393 7.393 0 0 1-1.899-2.484c-1.487-3.001-1.935-6.245-1.951-9.494-.063-14.678-.037-29.356-.042-44.028 0-.148-.079-.338.179-.448l31.518 26.987c-.179 6.746.28 13.486-.295 20.211-.295 3.454-.97 6.819-3.692 9.351-.094.313-.081.649.037.954h24.968v-.965c-1.704-1.519-2.553-3.481-3.086-5.617a38.353 38.353 0 0 1-.87-9.24v-55.136a66.68 66.68 0 0 1 .301-7.689c.379-3.355 1.055-6.609 3.692-9.051 0-.3.089-.601-.085-.896h-24.962v.944a9.82 9.82 0 0 1 2.711 4.282 25.979 25.979 0 0 1 1.186 8.022c.074 7.706.048 15.411.058 23.117 0 .184.085.395-.158.606l-.527-.411c-6.213-5.311-12.442-10.596-18.623-15.933-3.692-3.165-7.526-6.182-11.013-9.583-2.942-2.875-3.459-6.018-1.766-9.763.247-.373.3-.842.142-1.26h-21.249a1.643 1.643 0 0 0 0 1.055c1.977 1.682 2.916 4.008 3.56 6.497ZM1046.96 384.875a8.718 8.718 0 0 1-3.17 2.3c-2.75 1.125-5.7 1.7-8.68 1.693-9.27.221-18.54.053-27.82.095-.19 0-.39 0-.63-.042v-23.929c.19-.042.34-.084.53-.106 4.47-.591 8.99-.632 13.47-.121 3.13.343 6.19 1.134 8.32 3.692.33.073.67.053.99-.058v-24.973a1.671 1.671 0 0 0-1.06 0c-1.28 1.677-3.13 2.479-5.11 3.043-2.49.631-5.06.915-7.63.844-3.16 0-6.33.106-9.49-.501v-14.609c.31 0 .57-.042.83-.042h24.62c2.27-.047 4.54.115 6.78.485 2.89.527 5.65 1.334 7.65 3.76.3-.031.63.095.92-.079v-21.128c-3.1.614-6.25.938-9.41.965-3.13.064-6.27.037-9.4.037h-43.395a1.767 1.767 0 0 0 0 1.118c1.761 1.329 2.579 3.275 3.244 5.332.986 3.065 1.054 6.24 1.054 9.399.039 18.48.039 36.961 0 55.441 0 2.004-.037 4.009-.189 6.002-.306 3.914-1.055 7.679-4.162 10.475v.975h50.958c2.6 0 5.2.095 7.8.327 1.35.116 2.63.496 4.04.66v-21.097c-.35-.095-.72-.08-1.06.042ZM790.101 328.775c-3.286-4.99-7.953-8.154-13.517-10.1-5.712-1.999-11.635-2.537-17.626-2.542h-34.72c0 .211-.053.337-.058.469-.005.132 0 .396 0 .612 2.015 1.582 2.964 3.75 3.571 6.112.636 2.834.914 5.737.828 8.639v56.033a50.257 50.257 0 0 1-.217 6.492c-.443 3.465-1.002 6.893-3.728 9.383v1.007h25.637c0-.232.032-.396.032-.559a3.104 3.104 0 0 0-.042-.385c-2.495-1.973-3.566-4.689-4.061-7.684-.834-5.037-.407-10.116-.47-15.179 0-.053.069-.106.137-.216.369-.111.786-.238 1.197-.354 6.145-1.788 12.337-3.412 18.349-5.622 5.675-2.078 11.208-4.467 16.16-8.011 4.952-3.545 8.76-7.912 10.738-13.713a32.62 32.62 0 0 0 1.461-13.518 23.13 23.13 0 0 0-3.671-10.864Zm-14.003 16.144c-.474 4.662-3.048 7.995-6.856 10.506a40.487 40.487 0 0 1-8.528 4.114c-4.858 1.772-9.894 2.895-14.973 4.446v-32.041c.099-.042.204-.07.311-.084 5.801.063 11.603-.232 17.404.179a17.03 17.03 0 0 1 7.421 2.168c4.114 2.394 5.696 6.081 5.221 10.712ZM682.029 359.143c-3.512-3.423-7.742-5.886-11.729-8.671-2.379-1.661-4.747-3.338-6.741-5.479-2.637-2.854-3.027-6.857-.849-9.905a8.918 8.918 0 0 1 6.229-3.618c5.654-.828 10.696.527 15.063 4.383.305.075.627.051.918-.069v-20.696c-2.279.718-4.531.654-6.804.475-6.772-.527-13.465-.164-19.905 2.252-4.746 1.772-8.686 4.589-11.603 8.824a21.768 21.768 0 0 0-3.644 11.075c-.527 7.975 2.215 14.615 8.011 20.074 3.571 3.364 7.748 5.88 11.746 8.649 2.748 1.899 5.459 3.845 7.658 6.392 5.242 6.071 2.769 14.467-4.921 16.677-3.623 1.055-7.268.754-10.87-.179-3.512-.913-6.408-2.901-8.934-5.417h-1.06v20.116a63.236 63.236 0 0 0 12.61 1.608c6.377.259 12.658-.216 18.686-2.547a24.136 24.136 0 0 0 11.508-9.098c3.967-5.844 4.805-12.336 3.64-19.15-1.082-6.313-4.526-11.324-9.009-15.696ZM846.487 324.893c.48-2.896 1.239-5.659 3.528-7.727 0-.332.137-.664-.126-.975h-24.847c-.12.341-.12.713 0 1.054a9.55 9.55 0 0 1 2.495 3.861c1.097 2.98 1.355 6.092 1.355 9.23v58.136a49.341 49.341 0 0 1-.211 6.187c-.427 3.391-1.007 6.73-3.692 9.198-.094.327-.075.676.053.991h24.978v-.949c-1.84-1.651-2.7-3.787-3.233-6.092a36.643 36.643 0 0 1-.754-8.232v-58.016c-.033-2.231.118-4.46.454-6.666ZM498.522 397.881a37.71 37.71 0 0 1-.765-8.438v-55.727a59.474 59.474 0 0 1 .243-7.383c.422-3.397 1.055-6.73 3.734-9.188.072-.323.035-.66-.106-.96h-24.867a1.783 1.783 0 0 0-.032 1.055 9.356 9.356 0 0 1 2.495 3.819c1.123 3.016 1.377 6.16 1.377 9.335v58.426a44.38 44.38 0 0 1-.428 7.474c-.48 2.816-1.207 5.527-3.454 7.542-.124.345-.103.725.058 1.055h24.899a1.508 1.508 0 0 0 0-1.055c-1.751-1.588-2.632-3.666-3.154-5.955ZM754.733 435.296c-1.635 4.636-3.27 9.193-4.567 13.892-1.192-4.747-2.738-9.314-4.288-13.897h-4.589l-1.266 18.986h3.276c.258-5.137.527-10.221.77-15.295 1.276 5.127 2.932 10.127 4.53 15.153.896.05 1.794.02 2.685-.09 1.64-5.063 3.475-10.02 5.01-15.105.106 5.143.433 10.243.686 15.343h3.375c-.369-6.356-.728-12.658-1.092-18.987ZM686.924 266.793c-1.635 4.61-3.281 9.204-4.562 13.966-1.166-4.747-2.764-9.335-4.272-13.966h-4.61c-.422 6.329-.844 12.658-1.26 18.94h3.254c.242-5.169.638-10.248.796-15.359 1.213 5.153 2.927 10.143 4.478 15.163h2.716c1.609-5.073 3.481-10.02 4.979-15.157.174 5.142.432 10.263.706 15.363h3.381c-.369-6.36-.733-12.658-1.102-18.95ZM724.918 449.32c-2.294-4.942-5.369-9.393-8.032-14.029h-3.966v18.986h3.164c-.026-4.862.069-9.662 0-14.493 2.453 5.079 5.543 9.752 8.312 14.509h3.529v-18.987h-3.117c-.032 4.673-.127 9.336.11 14.014ZM807.574 449.594c-2.273-5.047-5.39-9.594-8.122-14.314h-3.94v18.955h3.107v-14.287c2.537 4.963 5.58 9.577 8.301 14.282h3.65v-18.939h-3.212c-.01 4.804-.121 9.546.216 14.303Zm-9.024-9.868s-.052-.042-.052-.063c0-.021.037-.037.052-.058.016-.021.053.042.053.063 0 .021-.037.058-.053.058ZM849.451 280.891c-2.279-4.984-5.375-9.456-8.054-14.092h-3.961v18.949h3.165c.037-4.899.032-9.736-.079-14.598 2.457 5.105 5.553 9.81 8.349 14.635h3.56v-18.986h-3.165c.021 4.741-.084 9.43.185 14.092ZM562.413 449.299c-2.326-4.911-5.348-9.378-8.038-14.019h-3.929v18.987h3.164c0-4.921.095-9.763-.105-14.625 2.494 5.084 5.558 9.81 8.359 14.609h3.56v-18.966h-3.164c-.027 4.705-.064 9.357.153 14.014ZM719.586 282.663c1.804-2.558 2.184-5.443 1.783-8.47-.839-6.345-7.458-9.763-13.022-6.667-3.433 1.91-4.588 5.148-4.746 8.592a12.345 12.345 0 0 0 1.054 5.19c2.669 5.759 11.266 6.55 14.931 1.355Zm-1.777-6.709a9.46 9.46 0 0 1-1.055 4.747c-1.804 3.228-5.838 3.544-8.096.638-1.83-2.363-1.83-7.621-.047-10.021a4.633 4.633 0 0 1 4.668-1.983c1.903.269 3.053 1.509 3.786 3.165a8.015 8.015 0 0 1 .744 3.454ZM941.584 435.111c-3.438-.675-6.482.222-8.728 3.07-2.247 2.848-2.669 6.171-1.867 9.62.733 3.164 2.584 5.469 5.764 6.392s6.282.448 8.834-1.888c2.237-2.052 2.89-4.747 2.964-7.674a9.526 9.526 0 0 0-.453-3.344c-1.018-3.254-3.112-5.511-6.514-6.176Zm1.783 14.768a4.747 4.747 0 0 1-7.943-.58 8.6 8.6 0 0 1-1.102-4.494c.089-2.342.49-4.578 2.463-6.165a4.703 4.703 0 0 1 6.165.527c2.342 2.621 2.548 7.943.417 10.722ZM633.74 445.264c.422-.227.691-.359.944-.527a4.748 4.748 0 0 0 2.51-4.162c.027-1.898-.622-3.496-2.41-4.472a8.899 8.899 0 0 0-4.135-.981 24.94 24.94 0 0 0-6.165.39v18.718h3.438v-7.727c3.597-.253 4.378.312 5.201 3.666.068.29.126.591.211.875.327 1.097.458 2.263 1.054 3.228h3.476c-.607-1.746-.976-3.497-1.424-5.227-.411-1.545-1.065-2.942-2.7-3.781Zm-.027-4.109a2.894 2.894 0 0 1-2.373 2.595 13.63 13.63 0 0 1-3.476.174v-6.002a7.384 7.384 0 0 1 4.367.248c1.129.501 1.625 1.619 1.482 2.985ZM870.167 445.253l.697-.395a4.843 4.843 0 0 0 2.637-4.947 4.473 4.473 0 0 0-3.165-4.167c-3.117-1.081-6.297-.617-9.493-.285v18.803h3.412v-7.68c3.217-.527 4.404.248 5.164 3.244a30.085 30.085 0 0 0 1.255 4.446h3.486c-.427-1.608-.875-3.133-1.224-4.678-.4-1.777-1.054-3.354-2.769-4.341Zm-.084-4.008a3.035 3.035 0 0 1-2.278 2.489c-1.159.22-2.342.286-3.518.196v-5.992a6.81 6.81 0 0 1 4.383.259c1.07.474 1.582 1.74 1.418 3.048ZM969.379 445.259l.606-.317c2.02-1.097 3.001-2.779 2.785-5.079a4.625 4.625 0 0 0-3.491-4.219c-2.342-.744-4.747-.554-7.126-.374-.706.058-1.466-.043-2.109.363v18.629h3.475v-7.806h1.583c1.845.053 2.742.707 3.28 2.468.264.855.422 1.735.67 2.595.248.86.401 1.936.881 2.721h3.507c-.443-1.181-.665-2.315-.965-3.428-.549-2.094-.807-4.367-3.096-5.553Zm-.058-3.951a2.953 2.953 0 0 1-2.152 2.384c-1.155.38-2.358.222-3.692.238v-6.002c1.667-.28 3.275-.454 4.747.495a2.638 2.638 0 0 1 1.097 2.885ZM790.449 285.838c2.811.364 5.667.06 8.339-.886v-9.63h-6.677c-.064.912-.036 1.83.084 2.737h3.259v4.673c-2.921 1.17-6.782.079-8.164-2.395a7.985 7.985 0 0 1-.29-7.484 5.543 5.543 0 0 1 3.729-3.064 10.797 10.797 0 0 1 6.798.427c.259-.949.496-1.835.765-2.821-3.966-1.219-7.79-1.345-11.413.828-3.333 2.004-4.968 6.328-4.093 10.395.886 4.235 3.386 6.577 7.663 7.22ZM736.448 277.452h8.117v8.312h3.386v-18.918h-3.444v7.447H736.4v-7.484h-3.359v18.913h3.391ZM675.104 435.285l-6.075 18.987h3.597c.527-1.798 1.054-3.544 1.582-5.306h6.091c.575 1.767 1.161 3.571 1.73 5.332h3.724l-6.176-18.986Zm-.211 10.886c.776-2.674 1.678-5.237 2.332-7.911.669 2.637 1.65 5.19 2.421 7.911ZM826.218 285.791c-2.088-6.417-4.14-12.734-6.155-18.95h-4.498l-6.05 18.913h3.581l1.63-5.306h6.044l1.714 5.348Zm-10.864-8.07c.786-2.726 1.698-5.337 2.352-8.027.649 2.716 1.635 5.301 2.431 8.027ZM775.93 451.398v-5.533h7.083v-2.858h-7.115v-4.9h7.489v-2.827h-10.975v18.987h11.487c.08-.958.055-1.922-.074-2.875ZM530.842 445.834h7.104v-2.764h-7.099v-5.016h7.505v-2.758h-10.965v18.987h11.366v-2.869h-7.911ZM604.88 445.844H612v-2.8h-7.12v-4.979h7.478v-2.774h-10.991v18.955h11.492v-2.832h-7.979ZM888.933 445.834h7.104c.092-.93.092-1.866 0-2.796h-7.073v-4.957h7.479v-2.79h-11.012v18.955h11.413v-2.806h-7.911ZM771.974 282.974h-7.937v-5.648h7.104v-2.822h-7.12v-4.931h7.521v-2.764h-10.955v18.955h11.398ZM915.44 443.334c-1.054-.491-2.283-.76-3.164-1.614-1.266-1.203-1.055-2.801.527-3.571a4.278 4.278 0 0 1 2.036-.39c1.236.079 2.451.358 3.597.828.274-.902.528-1.751.823-2.743-2.547-1.054-5.037-1.292-7.563-.416-2.11.728-3.449 2.204-3.692 4.477-.243 2.274.912 3.777 2.732 4.916a25.911 25.911 0 0 0 3.444 1.556c1.055.453 2.067.986 2.268 2.294.253 1.661-.87 2.874-2.885 3.027a9.668 9.668 0 0 1-5.132-1.16 15.071 15.071 0 0 0-.717 2.906c3.101 1.303 6.165 1.582 9.245.259 2.986-1.282 4.004-5.275 2.11-7.912-.965-1.255-2.294-1.846-3.629-2.457ZM647.4 435.227v2.917h5.474v16.112h3.428v-16.112h5.417v-2.906H647.4ZM983.034 438.17h5.405v16.128h3.481v-16.202h5.422v-2.816h-14.308ZM821.35 438.17h5.385v16.076h3.497v-16.102h5.437v-2.806H821.35ZM576.289 438.144h5.385v16.133h3.438v-16.191h5.475v-2.801h-14.298ZM696.982 454.267h3.359V435.28h-3.359Z"/><path fill="#512A75" d="M798.498 439.652s.031.042.052.064c.021.021.053-.037.053-.058 0-.022-.032-.043-.053-.064-.021-.021-.047.037-.052.058Z"/><path fill="#05886D" d="M332.678 418.477c.137-6.007-1.256-11.725-3.307-17.326-.528-1.476-1.614-2.79-1.456-4.483-.232-.248-.343-.601-.833-.648a4.12 4.12 0 0 0-2.041 3.375c-.217 3.001-1.298 5.802-1.62 8.792-.29 2.674-1.397 5.174-2.109 7.753-.744 2.695-1.255 5.274-.095 7.958.124.379.124.787 0 1.166-.728 3.565-1.371 7.136-.343 10.754.384 1.061.708 2.142.97 3.238.391 2.426.749 4.863.902 7.321.119.985.429 1.939.913 2.806.728 1.503 1.782 2.853 2.03 4.609.088.789.429 1.529.971 2.11.432-.133.772-.47.907-.902.306-1.308 1.028-2.41 1.582-3.608 1.176-2.573 2.405-5.163 2.679-8.053.222-2.389 1.34-4.583 1.535-6.972.09-1.055.058-2.11.09-3.191.074-2.827.332-5.654.053-8.481-.196-2.078-.876-4.093-.828-6.218Z"/><path fill="#B82B30" d="M274.921 364.501c1.819-.311 3.576-1.25 5.458-.864 2.289.469 4.22-.338 6.192-1.272a8.18 8.18 0 0 1 3.196-1.002 2.51 2.51 0 0 0 2.295-1.714c-1.514-.153-2.579-1.334-4.061-1.434a7.112 7.112 0 0 1-3.692-1.277 4.216 4.216 0 0 0-1.741-.706c-3.977-.66-7.805-1.946-11.735-2.79-1.524-.327-3.017-.77-4.609-.28-2.353.757-4.87.841-7.268.243a9.263 9.263 0 0 0-3.365-.069c-1.466.164-2.785.828-4.172 1.255-1.803.528-3.692.407-5.522.707-1.83.301-3.66 1.192-5.622 1.24a7.686 7.686 0 0 0-2.052.337c-2.004.575-3.865 1.556-5.928 1.804a2.034 2.034 0 0 0-.258 1.477c.875.279 1.751.559 2.637.849 1.667.527 3.576.432 4.926 1.856.633.659 1.529.786 2.379.928 2.107.299 4.172.848 6.149 1.635 1.576.66 3.319.81 4.984.428a15.039 15.039 0 0 1 4.167-.153c3.613.248 7.236.58 10.859.316 2.316-.163 4.473-1.129 6.783-1.514Z"/><path fill="#0283C2" d="M322.715 309.524a8.368 8.368 0 0 0 1.366 4.415 6.562 6.562 0 0 1 1.107 3.691c0 1.583.617 3.044 1.15 4.51a2.04 2.04 0 0 0 1.171 1.276 2.206 2.206 0 0 0 1.529-1.192c.454-1.276 1.024-2.516 1.103-3.908.079-1.392.153-2.953 1.123-4.161a9.012 9.012 0 0 0 1.762-4.267c.422-2.463.854-4.889.163-7.384a5.678 5.678 0 0 1 .216-3.639c1.129-2.785 1.055-5.564.269-8.407a7.962 7.962 0 0 1-.216-3.649c.5-2.082.414-4.262-.248-6.298-.285-.812-.432-1.672-.685-2.5-.639-2.109-.908-4.314-2.11-6.197a5.667 5.667 0 0 1-.955-4.04c.18-1.318-.87-2.352-1.44-3.486-.047-.09-.226-.111-.332-.158-.2.111-.38.195-.453.406-.823 2.442-1.256 4.989-2.184 7.384a11.826 11.826 0 0 0-.849 2.537c-.374 2.526-.865 5.031-1.055 7.589-.206 2.716-1.455 5.232-1.645 7.974-.159 2.284-.602 4.536-.164 6.857a79.342 79.342 0 0 1 1.377 12.647Z"/><path fill="#912D91" d="M423.276 359.111c-1.387-.717-2.895-.854-4.414-1.055-3.618-.479-6.946-1.977-10.343-3.196a23.329 23.329 0 0 0-9.272-1.497c-2.921.168-5.843.411-8.776.379-1.26 0-2.51-.395-3.776-.158-3.491.644-6.988 1.25-10.459 1.973-1.967.411-4.003.722-5.648 2.056a4.22 4.22 0 0 1-3.27.902c-1.234-.153-2.11.718-3.138 1.055-.269.095-.322.48-.09.976a5.853 5.853 0 0 1 3.238 1.197c.834.6 1.807.976 2.827 1.092 1.651.264 3.355.306 4.905 1.176 1.25.701 2.716.786 4.135.986 2.954.422 5.912.259 8.866.348 2.953.09 5.981-.406 8.966.238a9.707 9.707 0 0 0 5.664-.57 13.475 13.475 0 0 1 4.056-.923c3.66-.232 7.268-.712 10.506-2.637a.807.807 0 0 1 .475-.111 9.158 9.158 0 0 0 5.395-.954c.438-.217.733-.385.802-.844-.142-.259-.411-.311-.649-.433Z"/><path fill="#E8B644" d="M355.884 363.452a2.269 2.269 0 0 0 .448-2.732 1732.038 1732.038 0 0 1-4.805-10.496 4.22 4.22 0 0 0-2.436-2.22c-1.461-.564-3.017-.754-4.505-1.202a1.58 1.58 0 0 0-1.977.875 4.026 4.026 0 0 0-.064 3.655 6.023 6.023 0 0 1 .37 3.692 11.56 11.56 0 0 0-.159 3.56c.143 1.492.143 2.99.153 4.488 0 2.996-.801 6.023.528 9.082.633.34 1.387.371 2.046.085 2.273-1.129 4.652-2.136 6.376-4.125 1.33-1.54 2.643-3.133 4.025-4.662ZM340.082 345.409a43.328 43.328 0 0 0-.907-5.401 2.774 2.774 0 0 0-.812-1.46c-1.123-.992-2.226-2.005-3.391-2.938a40.308 40.308 0 0 0-4.32-2.859 2.382 2.382 0 0 0-1.234-.295c-2.811-.058-5.548.596-8.328.823a1.537 1.537 0 0 0-1.181.812c-.944 1.445-1.92 2.869-2.869 4.314-1.197 1.814-1.451 3.956-2.031 5.986a.98.98 0 0 0 .053.786.84.84 0 0 0 .992.232 4.831 4.831 0 0 1 2.262 0c2.279.317 4.595.262 6.856-.163a19.129 19.129 0 0 1 7.326-.032c2.453.469 4.916.665 7.384.965a.924.924 0 0 0 .2-.77ZM312.958 365.509a8.194 8.194 0 0 0-.232-2.97 8.494 8.494 0 0 1-.164-4.039c.491-2.527-.221-4.948-.775-7.353a6.985 6.985 0 0 1-.227-2.637c.047-.321.232-.638.042-1.028a2.824 2.824 0 0 0-.849-.654c-1.466.132-3.054.153-4.135 1.334a39.744 39.744 0 0 0-5.601 7.337 3.274 3.274 0 0 0-.427 1.582c-.037 2.774.601 5.474.828 8.222.078.536.41 1.002.891 1.25 1.519.997 2.996 2.057 4.541 3.012 1.888 1.165 4.114 1.302 6.329 2.109a29.358 29.358 0 0 1-.221-6.165ZM315.331 376.057a1.25 1.25 0 0 0-1.308.659c.116 1.208.854 2.11 1.408 3.08.765 1.351 1.424 2.79 2.664 3.824 1.239 1.034 2.415 1.978 3.56 3.043 1.582 1.472 3.512 1.583 5.274.886 3.09-1.186 6.044-2.721 9.082-4.055a4.316 4.316 0 0 0 2.394-2.521c.53-1.585.95-3.205 1.255-4.847a3.165 3.165 0 0 0-2.368.068 4.744 4.744 0 0 1-3.781-.058 5.266 5.266 0 0 0-3.122-.337 12.434 12.434 0 0 1-4.167.11 8.519 8.519 0 0 0-3.576 0c-1.489.351-3.027.44-4.546.264-.891-.037-1.825-.068-2.769-.116Z"/><path fill="#912D91" d="M388.736 370.888c-2.025-.722-3.966-1.819-6.165-1.861a25.024 25.024 0 0 1-8.112-1.314c-2.59-.938-5.39-.696-8.08-1.102a2.524 2.524 0 0 0-1.788.401c-.865.527-1.645 1.271-2.716 1.239a1.821 1.821 0 0 0-.585.849c.284.317.559.607.822.865 1.145 1.15 2.316 2.11 4.151 2.205a13.254 13.254 0 0 1 4.683.796c1.43.612 2.764 1.44 4.267 1.91a60.543 60.543 0 0 1 8.407 3.09c.604.362 1.33.463 2.01.28 1.487-.464 3.022-.749 4.583-.248.812.264 1.144-.232 1.318-.912.064-.259.048-.528.101-.792.543-2.705-.354-4.493-2.896-5.406ZM360.989 351.379c.48 1.583 1.73 1.957 3.08 2.11.68.074 1.355-.174 2.067-.042 2.292.415 4.639.429 6.936.042 2.067-.348 3.998-1.213 6.034-1.64 3.792-.791 7.209-2.416 10.548-4.304 1.93-1.102 2.357-3.86.77-5.195a3.054 3.054 0 0 0-2.31-.775c-.633.063-1.292.121-1.788-.375-.596-.596-1.224-.527-1.915-.242a6.936 6.936 0 0 0-1.956 1.181c-3.117 2.78-6.978 3.819-10.907 4.699-1.372.312-2.759.607-3.835 1.546a5.545 5.545 0 0 1-3.243 1.302c-1.145.117-2.331.138-3.323.95l-.158.743Z"/><path fill="#B82B30" d="M296.123 369.227c-.454-1.498-.528-1.582-2.685-3.075a3.878 3.878 0 0 0-3.502-.622 15.468 15.468 0 0 1-4.288.738 20.58 20.58 0 0 0-8.333 2.073c-1.445.68-2.932 1.419-4.52 1.387-2.779-.053-4.034 1.999-5.706 3.65.791 1.619 1.687 3.206 1.054 5.158.981.443 1.868.981 2.764.527a10.902 10.902 0 0 1 2.11-.764c3.28-.929 6.492-1.957 9.451-3.787 3.692-2.295 7.7-4.035 12.13-4.399a2.06 2.06 0 0 0 1.525-.886Z"/><path fill="#05886D" d="M344.771 414.363c.3-.884.238-1.852-.174-2.69-1.261-3.164-2.11-6.519-4.367-9.198a6.583 6.583 0 0 1-.691-1.313c-1.055-1.989-1.113-4.135-.997-6.271-.68-.823-1.339-1.582-2.32-1.825-.391-.464-.617-1.013-1.213-1.271a1.07 1.07 0 0 0-.243.105c-1.429 1.446-2.473 2.891-2.067 5.232.453 2.637.527 5.343 1.265 7.954 1.182 4.282 3.655 8.127 4.278 12.6.027.13.067.257.121.379.082.25.278.446.527.528.987.227 1.683.907 2.411 1.535.728.627 1.461.754 2.178.216a4.713 4.713 0 0 0 1.677-2.173c.353-.971.527-1.83-.232-2.685a1.134 1.134 0 0 1-.153-1.123Z"/><path fill="#B82B30" d="M268.966 346.179c.807 1.14 1.951 2 3.27 2.458a18.29 18.29 0 0 1 5.575 2.753 9.214 9.214 0 0 0 6.07 1.841 8.602 8.602 0 0 1 2.87.274 21.29 21.29 0 0 0 7.684.791c.185-.369.427-.796.622-1.25.195-.453.638-.77.707-1.413-.306-.586-.659-1.256-1.018-1.931a18.684 18.684 0 0 0-4.251-1.055 8.425 8.425 0 0 1-3.259-1.118 27.186 27.186 0 0 0-4.119-1.993c-2.205-.754-4.378-1.535-5.944-3.428a1.73 1.73 0 0 0-1.73-.792 2.786 2.786 0 0 1-2.11-.363c-.622-.338-1.371-.496-1.872 0a7.087 7.087 0 0 1-2.948 1.729c-1.198.385-1.329 1.382-.491 2.347.327.37.638.755.944 1.15Z"/><path fill="#0283C2" d="M311.639 307.989a8.439 8.439 0 0 1 1.366 5.216 6.074 6.074 0 0 0 1.266 4.088c1.419 2.03 2.41 4.219 2.479 6.782.015.502.126.996.327 1.456a4.451 4.451 0 0 0 1.972 2.173c.707-1.028 1.883-1.556 2.01-2.637.328-2.201.474-4.426.437-6.651-.116-2.436-1.144-4.646-1.545-6.993a27.591 27.591 0 0 0-2.379-7.88 35.309 35.309 0 0 0-2.99-5.395 3.955 3.955 0 0 0-1.756.48l-.586 1.582a4.769 4.769 0 0 1-.643.269c-1.661.422-2.774 2.837-1.788 4.219.738 1.066 1.171 2.221 1.83 3.291ZM334.729 324.054a2.64 2.64 0 0 0 .638 1.862 21.714 21.714 0 0 0 1.936 1.714c.654-1.287 1.519-2.352 1.777-3.692.744-3.839 2.205-7.42 3.808-10.954a25.243 25.243 0 0 0 2.157-9.625c0-.786-.258-1.583.053-2.358.617-1.624.211-2.763-1.202-3.692-.233-.158-.528-.343-.728-.195-.834.575-1.957.733-2.4 1.899-.527 1.45-.933 3.054-1.914 4.219-1.214 1.466-1.757 3.165-2.363 4.873-1.319 3.692-2.215 7.527-1.846 11.493.137 1.492.084 2.98.084 4.456Z"/><path fill="#B82B30" d="M320.304 364.09a10.9 10.9 0 0 0 4.642 2.911c1.582.449 3.111.66 4.715-.068 2.041-.923 3.349-2.637 4.815-4.177.526-.57.783-1.338.707-2.11-.269-1.445-.153-2.985-1.055-4.277-2.268-3.165-7.009-4.351-10.548-3.101-.377.139-.707.38-.955.696-.448.527-.928 1.055-1.371 1.582-1.282 1.551-2.252 3.164-1.693 5.343.151.784.251 1.576.3 2.373.046.319.203.613.443.828Z"/><path fill="#05886D" d="M320.637 393.931a5.616 5.616 0 0 1-1.772-1.856 1.103 1.103 0 0 0-.834-.623 1.802 1.802 0 0 0-.78.892c-1.54 2.779-2.252 5.849-2.854 8.923-.379 1.925-.896 3.729-2.083 5.317a5.152 5.152 0 0 0-.786 1.381 36.173 36.173 0 0 0-1.761 7.426c-.201 1.583.627 2.938.944 4.404.037.158.264.29.427.401 1.023.68 3.455.448 4.372-.411.042-.459.101-.923.122-1.387.05-.497.214-.975.48-1.398 2.315-4.161 3.069-8.803 4.061-13.359.617-2.864.353-5.834.965-8.708a.918.918 0 0 0-.501-1.002Z"/><path d="M357.424 336.744c2.331-.032 4.514-2.969 4.346-5.564-.143-2.184-2.743-4.531-4.863-4.388a4.894 4.894 0 0 0-5.169 5.216c.264 3.365 2.943 4.778 5.686 4.736ZM297.731 337.002c3.434.09 5.243-1.735 5.274-5.274.238-2.542-2.526-4.604-4.931-4.604-2.816 0-4.826 1.935-4.915 5.237a4.83 4.83 0 0 0 4.572 4.641ZM298.802 383.778c-3.66.137-5.047 1.915-5.179 5.375-.095 2.452 2.526 4.641 5.548 4.483 2.421-.127 4.404-1.899 4.341-5.601-.032-1.957-2.068-4.447-4.71-4.257ZM357.255 384.126c-3.908 0-5.243 1.509-5.686 4.926-.284 2.21 1.736 5.185 5.053 4.963 2.463.259 4.646-2.02 4.826-4.773.137-2.173-2.284-5.11-4.193-5.116Z"/></g></g></svg>